P3
2 2
255
89 64 35 36 33 64 
64 35 35 36 25 99 
